<mxfile host="app.diagrams.net" agent="Mozilla/5.0 (Windows NT 10.0; Win64; x64) AppleWebKit/537.36 (KHTML, like Gecko) Chrome/131.0.0.0 Safari/537.36" version="25.0.1">
  <diagram name="Page-1" id="e7e014a7-5840-1c2e-5031-d8a46d1fe8dd">
    <mxGraphModel dx="1195" dy="657" grid="1" gridSize="10" guides="1" tooltips="1" connect="1" arrows="1" fold="1" page="1" pageScale="1" pageWidth="1169" pageHeight="826" background="none" math="0" shadow="0">
      <root>
        <mxCell id="0" />
        <mxCell id="1" parent="0" />
        <mxCell id="_zeqTD-cbf3Eoh2X06K5-41" value="Flow" style="text;html=1;align=center;verticalAlign=middle;whiteSpace=wrap;rounded=0;fontSize=16;" vertex="1" parent="1">
          <mxGeometry width="60" height="30" as="geometry" />
        </mxCell>
        <mxCell id="_zeqTD-cbf3Eoh2X06K5-42" style="edgeStyle=none;curved=1;rounded=0;orthogonalLoop=1;jettySize=auto;html=1;exitX=0.5;exitY=1;exitDx=0;exitDy=0;entryX=0.25;entryY=1;entryDx=0;entryDy=0;fontSize=12;startSize=8;endSize=8;" edge="1" parent="1" source="_zeqTD-cbf3Eoh2X06K5-41" target="_zeqTD-cbf3Eoh2X06K5-41">
          <mxGeometry relative="1" as="geometry" />
        </mxCell>
        <mxCell id="_zeqTD-cbf3Eoh2X06K5-50" style="edgeStyle=none;curved=1;rounded=0;orthogonalLoop=1;jettySize=auto;html=1;entryX=0.5;entryY=1;entryDx=0;entryDy=0;fontSize=12;startSize=8;endSize=8;" edge="1" parent="1" source="_zeqTD-cbf3Eoh2X06K5-43" target="_zeqTD-cbf3Eoh2X06K5-45">
          <mxGeometry relative="1" as="geometry" />
        </mxCell>
        <mxCell id="_zeqTD-cbf3Eoh2X06K5-43" value="Road" style="rounded=0;whiteSpace=wrap;html=1;" vertex="1" parent="1">
          <mxGeometry x="130" y="130" width="140" height="40" as="geometry" />
        </mxCell>
        <mxCell id="_zeqTD-cbf3Eoh2X06K5-45" value="SpawnRoad" style="rounded=0;whiteSpace=wrap;html=1;" vertex="1" parent="1">
          <mxGeometry x="130" y="50" width="140" height="40" as="geometry" />
        </mxCell>
        <mxCell id="_zeqTD-cbf3Eoh2X06K5-46" value="SpawnEnemy" style="rounded=0;whiteSpace=wrap;html=1;" vertex="1" parent="1">
          <mxGeometry x="220" y="210" width="140" height="40" as="geometry" />
        </mxCell>
        <mxCell id="_zeqTD-cbf3Eoh2X06K5-47" value="SpawnCoin" style="rounded=0;whiteSpace=wrap;html=1;" vertex="1" parent="1">
          <mxGeometry x="50" y="210" width="140" height="40" as="geometry" />
        </mxCell>
        <mxCell id="_zeqTD-cbf3Eoh2X06K5-48" style="edgeStyle=none;curved=1;rounded=0;orthogonalLoop=1;jettySize=auto;html=1;entryX=0.429;entryY=1;entryDx=0;entryDy=0;entryPerimeter=0;fontSize=12;startSize=8;endSize=8;" edge="1" parent="1" source="_zeqTD-cbf3Eoh2X06K5-47" target="_zeqTD-cbf3Eoh2X06K5-43">
          <mxGeometry relative="1" as="geometry" />
        </mxCell>
        <mxCell id="_zeqTD-cbf3Eoh2X06K5-49" style="edgeStyle=none;curved=1;rounded=0;orthogonalLoop=1;jettySize=auto;html=1;entryX=0.571;entryY=1;entryDx=0;entryDy=0;entryPerimeter=0;fontSize=12;startSize=8;endSize=8;" edge="1" parent="1" source="_zeqTD-cbf3Eoh2X06K5-46" target="_zeqTD-cbf3Eoh2X06K5-43">
          <mxGeometry relative="1" as="geometry" />
        </mxCell>
        <mxCell id="_zeqTD-cbf3Eoh2X06K5-51" value="" style="rounded=0;whiteSpace=wrap;html=1;" vertex="1" parent="1">
          <mxGeometry x="210" y="190" width="120" height="60" as="geometry" />
        </mxCell>
      </root>
    </mxGraphModel>
  </diagram>
</mxfile>
